<svg width="45" height="45" viewBox="0 0 45 45" fill="none" xmlns="http://www.w3.org/2000/svg">
<mask id="mask0_1267_53" style="mask-type:alpha" maskUnits="userSpaceOnUse" x="0" y="0" width="45" height="45">
<rect width="45" height="45" fill="#D9D9D9"/>
</mask>
<g mask="url(#mask0_1267_53)">
<path fill-rule="evenodd" clip-rule="evenodd" d="M30.4739 20.1999C30.4739 22.1679 29.6921 24.0554 28.3005 25.447C26.9089 26.8386 25.0214 27.6204 23.0534 27.6204C21.0853 27.6204 19.1979 26.8386 17.8062 25.447C16.4146 24.0554 15.6328 22.1679 15.6328 20.1999C15.6328 18.2318 16.4146 16.3444 17.8062 14.9527C19.1979 13.5611 21.0853 12.7793 23.0534 12.7793C25.0214 12.7793 26.9089 13.5611 28.3005 14.9527C29.6921 16.3444 30.4739 18.2318 30.4739 20.1999ZM26.7637 20.1999C26.7637 21.1839 26.3728 22.1276 25.6769 22.8234C24.9811 23.5192 24.0374 23.9101 23.0534 23.9101C22.0694 23.9101 21.1256 23.5192 20.4298 22.8234C19.734 22.1276 19.3431 21.1839 19.3431 20.1999C19.3431 19.2158 19.734 18.2721 20.4298 17.5763C21.1256 16.8805 22.0694 16.4896 23.0534 16.4896C24.0374 16.4896 24.9811 16.8805 25.6769 17.5763C26.3728 18.2721 26.7637 19.2158 26.7637 20.1999Z" fill="white"/>
<path fill-rule="evenodd" clip-rule="evenodd" d="M11.0368 31.7883C8.64521 29.5112 6.98257 26.5761 6.25912 23.3541C5.53567 20.1321 5.78391 16.7679 6.97244 13.687C8.16096 10.6061 10.2364 7.94678 12.9363 6.04541C15.6362 4.14403 18.8393 3.08597 22.1405 3.00502C25.4417 2.92407 28.6928 3.82387 31.4827 5.59064C34.2725 7.3574 36.4758 9.91178 37.8139 12.9307C39.152 15.9497 39.5648 19.2977 39.0002 22.5513C38.4355 25.8049 36.9187 28.8179 34.6416 31.2095L23.1286 43.3013L11.0368 31.7883ZM31.9554 28.6512L23.0006 38.0568L13.595 29.102C11.735 27.331 10.4419 25.0481 9.87927 22.5422C9.31663 20.0363 9.5097 17.4197 10.4341 15.0235C11.3585 12.6273 12.9726 10.559 15.0725 9.08015C17.1723 7.6013 19.6635 6.77832 22.2311 6.71528C24.7986 6.65224 27.3272 7.35197 29.4971 8.72599C31.667 10.1 33.3807 12.0866 34.4216 14.4346C35.4625 16.7825 35.7837 19.3864 35.3447 21.9169C34.9057 24.4475 33.7262 26.791 31.9554 28.6512Z" fill="white"/>
</g>
</svg>
