<svg width="45" height="45" viewBox="0 0 45 45" fill="none" xmlns="http://www.w3.org/2000/svg">
<mask id="mask0_1267_55" style="mask-type:alpha" maskUnits="userSpaceOnUse" x="0" y="0" width="45" height="45">
<rect width="45" height="45" fill="#D9D9D9"/>
</mask>
<g mask="url(#mask0_1267_55)">
<path d="M34.6046 4.61292C34.1957 4.34442 33.6972 4.24836 33.2177 4.34565C32.7382 4.44293 32.3166 4.72569 32.0446 5.13236L22.4535 19.5097L12.8624 5.13236C12.5724 4.77238 12.1585 4.53362 11.7017 4.46284C11.245 4.39205 10.7782 4.49434 10.3929 4.74966C10.0076 5.00499 9.73147 5.39497 9.61863 5.84321C9.50579 6.29146 9.56435 6.76568 9.78285 7.17301L19.0586 20.9938H13.1778C12.6857 20.9938 12.2139 21.1893 11.866 21.5372C11.5181 21.8851 11.3226 22.357 11.3226 22.849C11.3226 23.341 11.5181 23.8128 11.866 24.1607C12.2139 24.5087 12.6857 24.7041 13.1778 24.7041H20.5983V28.4144H13.1778C12.6857 28.4144 12.2139 28.6098 11.866 28.9578C11.5181 29.3057 11.3226 29.7775 11.3226 30.2695C11.3226 30.7615 11.5181 31.2334 11.866 31.5813C12.2139 31.9292 12.6857 32.1247 13.1778 32.1247H20.5983V39.5452C20.5983 40.0373 20.7938 40.5091 21.1417 40.857C21.4896 41.2049 21.9615 41.4004 22.4535 41.4004C22.9455 41.4004 23.4173 41.2049 23.7653 40.857C24.1132 40.5091 24.3086 40.0373 24.3086 39.5452V32.1247H31.7292C32.2212 32.1247 32.6931 31.9292 33.041 31.5813C33.3889 31.2334 33.5843 30.7615 33.5843 30.2695C33.5843 29.7775 33.3889 29.3057 33.041 28.9578C32.6931 28.6098 32.2212 28.4144 31.7292 28.4144H24.3086V24.7041H31.7292C32.2212 24.7041 32.6931 24.5087 33.041 24.1607C33.3889 23.8128 33.5843 23.341 33.5843 22.849C33.5843 22.357 33.3889 21.8851 33.041 21.5372C32.6931 21.1893 32.2212 20.9938 31.7292 20.9938H25.9226L35.1983 7.17301C35.3278 6.96606 35.4152 6.73557 35.4555 6.49476C35.4958 6.25395 35.4881 6.00756 35.433 5.76972C35.3778 5.53188 35.2763 5.30727 35.1341 5.10876C34.992 4.91025 34.812 4.74175 34.6046 4.61292Z" fill="white"/>
</g>
</svg>
