<svg width="45" height="45" viewBox="0 0 45 45" fill="none" xmlns="http://www.w3.org/2000/svg">
<mask id="mask0_1267_54" style="mask-type:alpha" maskUnits="userSpaceOnUse" x="0" y="0" width="45" height="45">
<rect width="45" height="45" fill="#D9D9D9"/>
</mask>
<g mask="url(#mask0_1267_54)">
<path d="M22.5514 4.50977C12.3222 4.50977 4 12.8319 4 23.0612C4 33.2904 12.3222 41.6126 22.5514 41.6126C32.7807 41.6126 41.1028 33.2904 41.1028 23.0612C41.1028 12.8319 32.7807 4.50977 22.5514 4.50977ZM22.5514 37.9023C14.3684 37.9023 7.71028 31.2442 7.71028 23.0612C7.71028 14.8782 14.3684 8.22005 22.5514 8.22005C30.7345 8.22005 37.3926 14.8782 37.3926 23.0612C37.3926 31.2442 30.7345 37.9023 22.5514 37.9023Z" fill="white"/>
<path d="M24.4066 13.7852H20.6963V24.916H31.8271V21.2057H24.4066V13.7852Z" fill="white"/>
</g>
</svg>
