<svg width="36" height="40" viewBox="0 0 36 40" fill="none" xmlns="http://www.w3.org/2000/svg">
<path d="M20 1.03225e-05C22.9645 -0.00300437 25.8924 0.654355 28.5711 1.92433C31.2498 3.19431 33.6119 5.04502 35.486 7.34201L22.828 20L35.486 32.658C33.6119 34.955 31.2498 36.8057 28.5711 38.0757C25.8924 39.3456 22.9645 40.003 20 40C8.954 40 0 31.046 0 20C0 8.95401 8.954 1.03225e-05 20 1.03225e-05ZM20 6.00001C19.2043 6.00001 18.4413 6.31608 17.8787 6.87869C17.3161 7.4413 17 8.20436 17 9.00001C17 9.79566 17.3161 10.5587 17.8787 11.1213C18.4413 11.6839 19.2043 12 20 12C20.7956 12 21.5587 11.6839 22.1213 11.1213C22.6839 10.5587 23 9.79566 23 9.00001C23 8.20436 22.6839 7.4413 22.1213 6.87869C21.5587 6.31608 20.7956 6.00001 20 6.00001Z" fill="white"/>
</svg>
