<svg width="40" height="40" viewBox="0 0 40 40" fill="none" xmlns="http://www.w3.org/2000/svg">
<path d="M26.4229 7.45376e-06C24.5153 -0.00199332 22.6287 0.398819 20.8867 1.17622C19.1446 1.95362 17.5864 3.09008 16.3138 4.51125C15.0413 5.93243 14.0832 7.60627 13.5022 9.42327C12.9212 11.2403 12.7303 13.1595 12.9422 15.0553L0.698739 31.7513C0.189266 32.4383 -0.055133 33.2861 0.0104645 34.1388C0.076062 34.9916 0.447248 35.792 1.0558 36.393L3.60697 38.9442C4.20795 39.5528 5.00839 39.9239 5.86116 39.9895C6.71393 40.0551 7.56172 39.8107 8.24871 39.3013L24.9447 27.0578C26.7764 27.2557 28.6293 27.0785 30.3903 26.537C32.1513 25.9955 33.7836 25.101 35.1877 23.9081C36.5917 22.7152 37.7381 21.2488 38.5569 19.5983C39.3758 17.9479 39.8499 16.148 39.9504 14.3083C40.0509 12.4686 39.7757 10.6278 39.1415 8.89796C38.5074 7.16814 37.5276 5.58559 36.2618 4.2468C34.9961 2.90801 33.471 1.84102 31.7794 1.11089C30.0878 0.380762 28.2653 0.00278623 26.4229 7.45376e-06ZM35.7064 13.5682C35.7082 15.2883 35.229 16.9746 34.3228 18.4366L21.5562 5.66829C22.9624 4.80261 24.5741 4.3277 26.2251 4.2925C27.876 4.25731 29.5065 4.66312 30.9483 5.46808C32.3901 6.27304 33.5911 7.44802 34.4275 8.87186C35.2639 10.2957 35.7054 11.9169 35.7064 13.5682ZM6.1992 35.4754L4.51568 33.7919L14.5472 20.1112C15.7887 22.3543 17.6368 24.2024 19.8798 25.4439L6.1992 35.4754ZM17.1394 13.5682C17.1373 11.848 17.6166 10.1616 18.523 8.6997L31.2896 21.4663C29.8835 22.3319 28.272 22.8068 26.6212 22.842C24.9704 22.8773 23.3401 22.4717 21.8983 21.6669C20.4565 20.8622 19.2555 19.6874 18.419 18.2639C17.5824 16.8403 17.1408 15.2193 17.1394 13.5682Z" fill="white"/>
</svg>
