<svg width="41" height="40" viewBox="0 0 41 40" fill="none" xmlns="http://www.w3.org/2000/svg">
<path d="M26.8953 7.9198H38.1113C39.2101 7.9198 40.1003 8.81203 40.1003 9.92481V37.995C40.1003 39.1018 39.188 40 38.1113 40H1.98901C1.72661 39.9995 1.4669 39.9471 1.22477 39.846C0.982648 39.7449 0.762881 39.5969 0.578083 39.4106C0.393284 39.2243 0.247092 39.0034 0.147896 38.7604C0.0486997 38.5175 -0.00154809 38.2574 3.63354e-05 37.995V9.92481C3.63354e-05 8.81804 0.912317 7.9198 1.98901 7.9198H13.205L8.12034 2.83709L10.9554 0L18.8752 7.9198H21.2251L29.1449 0L31.98 2.83709L26.8953 7.9198Z" fill="white"/>
</svg>
