<svg width="39" height="40" viewBox="0 0 39 40" fill="none" xmlns="http://www.w3.org/2000/svg">
<path d="M3.2 12.8H35.2L38.4 40H0L3.2 12.8ZM9.6 24H12.8V17.6H9.6V24ZM25.6 24H28.8V17.6H25.6V24ZM12.8 9.6H9.6C9.6 7.05392 10.6114 4.61212 12.4118 2.81178C14.2121 1.01143 16.6539 0 19.2 0C21.7461 0 24.1879 1.01143 25.9882 2.81178C27.7886 4.61212 28.8 7.05392 28.8 9.6H25.6C25.6 7.90261 24.9257 6.27475 23.7255 5.07452C22.5252 3.87428 20.8974 3.2 19.2 3.2C17.5026 3.2 15.8747 3.87428 14.6745 5.07452C13.4743 6.27475 12.8 7.90261 12.8 9.6Z" fill="white"/>
</svg>
