<svg width="39" height="41" viewBox="0 0 39 41" fill="none" xmlns="http://www.w3.org/2000/svg">
<path fill-rule="evenodd" clip-rule="evenodd" d="M0 9.08402C-1.76748e-08 10.2701 0.233626 11.4447 0.687539 12.5405C1.14145 13.6364 1.80676 14.6321 2.64549 15.4708C3.48421 16.3095 4.47992 16.9748 5.57576 17.4287C6.67161 17.8826 7.84612 18.1163 9.03226 18.1163C10.2184 18.1163 11.3929 17.8826 12.4888 17.4287C13.5846 16.9748 14.5803 16.3095 15.419 15.4708C16.2577 14.6321 16.9231 13.6364 17.377 12.5405C17.8309 11.4447 18.0645 10.2701 18.0645 9.08402C18.0645 6.68851 17.1129 4.39112 15.419 2.69724C13.7251 1.00337 11.4278 0.0517578 9.03226 0.0517578C6.63675 0.0517578 4.33936 1.00337 2.64549 2.69724C0.95161 4.39112 3.56958e-08 6.68851 0 9.08402ZM12.9032 9.08402C12.9032 9.59236 12.8031 10.0957 12.6086 10.5654C12.414 11.035 12.1289 11.4618 11.7694 11.8212C11.41 12.1807 10.9833 12.4658 10.5136 12.6603C10.044 12.8549 9.5406 12.955 9.03226 12.955C8.52391 12.955 8.02055 12.8549 7.5509 12.6603C7.08125 12.4658 6.65452 12.1807 6.29507 11.8212C5.93562 11.4618 5.65048 11.035 5.45595 10.5654C5.26141 10.0957 5.16129 9.59236 5.16129 9.08402C5.16129 8.05737 5.56912 7.07277 6.29507 6.34683C7.02102 5.62088 8.00561 5.21305 9.03226 5.21305C10.0589 5.21305 11.0435 5.62088 11.7694 6.34683C12.4954 7.07277 12.9032 8.05737 12.9032 9.08402ZM0 31.0195C-1.76748e-08 32.2056 0.233626 33.3801 0.687539 34.476C1.14145 35.5718 1.80676 36.5675 2.64549 37.4063C3.48421 38.245 4.47992 38.9103 5.57576 39.3642C6.67161 39.8181 7.84612 40.0518 9.03226 40.0518C10.2184 40.0518 11.3929 39.8181 12.4888 39.3642C13.5846 38.9103 14.5803 38.245 15.419 37.4063C16.2577 36.5675 16.9231 35.5718 17.377 34.476C17.8309 33.3801 18.0645 32.2056 18.0645 31.0195C18.0645 28.624 17.1129 26.3266 15.419 24.6327C13.7251 22.9389 11.4278 21.9872 9.03226 21.9872C6.63675 21.9872 4.33936 22.9389 2.64549 24.6327C0.95161 26.3266 3.56958e-08 28.624 0 31.0195ZM12.9032 31.0195C12.9032 31.5278 12.8031 32.0312 12.6086 32.5009C12.414 32.9705 12.1289 33.3972 11.7694 33.7567C11.41 34.1161 10.9833 34.4013 10.5136 34.5958C10.044 34.7903 9.5406 34.8905 9.03226 34.8905C8.52391 34.8905 8.02055 34.7903 7.5509 34.5958C7.08125 34.4013 6.65452 34.1161 6.29507 33.7567C5.93562 33.3972 5.65048 32.9705 5.45595 32.5009C5.26141 32.0312 5.16129 31.5278 5.16129 31.0195C5.16129 29.9929 5.56912 29.0083 6.29507 28.2823C7.02102 27.5564 8.00561 27.1485 9.03226 27.1485C10.0589 27.1485 11.0435 27.5564 11.7694 28.2823C12.4954 29.0083 12.9032 29.9929 12.9032 31.0195Z" fill="white"/>
<path d="M37.9535 34.3552C38.4236 34.8419 38.6837 35.4938 38.6778 36.1704C38.6719 36.8471 38.4005 37.4943 37.922 37.9728C37.4436 38.4513 36.7963 38.7227 36.1197 38.7286C35.443 38.7344 34.7911 38.4743 34.3044 38.0042L12.3689 16.0688C11.8989 15.582 11.6387 14.9302 11.6446 14.2535C11.6505 13.5769 11.9219 12.9296 12.4004 12.4512C12.8789 11.9727 13.5261 11.7013 14.2028 11.6954C14.8794 11.6895 15.5313 11.9496 16.018 12.4197L37.9535 34.3552Z" fill="white"/>
<path d="M12.3691 24.0334C12.1227 24.2715 11.9261 24.5563 11.7908 24.8711C11.6556 25.186 11.5844 25.5246 11.5814 25.8672C11.5784 26.2099 11.6437 26.5497 11.7735 26.8669C11.9032 27.184 12.0948 27.4722 12.3372 27.7145C12.5795 27.9568 12.8676 28.1484 13.1847 28.2781C13.5019 28.4079 13.8417 28.4732 14.1844 28.4702C14.527 28.4672 14.8657 28.396 15.1805 28.2608C15.4954 28.1255 15.7801 27.9289 16.0182 27.6825L37.9537 5.74698C38.4237 5.26027 38.6839 4.60839 38.678 3.93176C38.6721 3.25512 38.4007 2.60786 37.9222 2.12939C37.4437 1.65092 36.7965 1.37951 36.1198 1.37363C35.4432 1.36775 34.7913 1.62787 34.3046 2.09795L12.3691 24.0334Z" fill="white"/>
</svg>
