<svg width="34" height="40" viewBox="0 0 34 40" fill="none" xmlns="http://www.w3.org/2000/svg">
<path d="M2.07619e-06 28.4211V8.42106C2.07619e-06 6.56142 0.482809 5.07861 1.44842 3.97265C2.41404 2.86668 3.68561 2.02458 5.26316 1.44633C6.8421 0.868085 8.6407 0.48212 10.6589 0.288436C12.6772 0.0947521 14.7382 -0.00138836 16.8421 1.51457e-05C19.1579 1.51457e-05 21.3424 0.0968572 23.3958 0.290541C25.4491 0.484226 27.2386 0.87019 28.7642 1.44844C30.2898 2.02668 31.4912 2.86879 32.3684 3.97475C33.2456 5.08071 33.6842 6.56282 33.6842 8.42106V28.4211C33.6842 30.4912 32.974 32.2372 31.5537 33.659C30.1333 35.0807 28.3874 35.7909 26.3158 35.7895L29.4737 38.9474V40H25.2631L21.0526 35.7895H12.6316L8.42105 40H4.21053V38.9474L7.36842 35.7895C5.29825 35.7895 3.55228 35.0793 2.13053 33.659C0.708774 32.2386 -0.00140143 30.4926 2.07619e-06 28.4211ZM4.21053 16.8421H14.7368V10.5263H4.21053V16.8421ZM18.9474 16.8421H29.4737V10.5263H18.9474V16.8421ZM9.47368 29.4737C10.386 29.4737 11.1403 29.1754 11.7368 28.579C12.3333 27.9825 12.6316 27.2281 12.6316 26.3158C12.6316 25.4035 12.3333 24.6491 11.7368 24.0526C11.1403 23.4561 10.386 23.1579 9.47368 23.1579C8.5614 23.1579 7.80702 23.4561 7.21053 24.0526C6.61403 24.6491 6.31579 25.4035 6.31579 26.3158C6.31579 27.2281 6.61403 27.9825 7.21053 28.579C7.80702 29.1754 8.5614 29.4737 9.47368 29.4737ZM24.2105 29.4737C25.1228 29.4737 25.8772 29.1754 26.4737 28.579C27.0702 27.9825 27.3684 27.2281 27.3684 26.3158C27.3684 25.4035 27.0702 24.6491 26.4737 24.0526C25.8772 23.4561 25.1228 23.1579 24.2105 23.1579C23.2982 23.1579 22.5439 23.4561 21.9474 24.0526C21.3509 24.6491 21.0526 25.4035 21.0526 26.3158C21.0526 27.2281 21.3509 27.9825 21.9474 28.579C22.5439 29.1754 23.2982 29.4737 24.2105 29.4737Z" fill="white"/>
</svg>
