<svg width="46" height="44" viewBox="0 0 46 44" fill="none" xmlns="http://www.w3.org/2000/svg">
<mask id="mask0_1191_2232" style="mask-type:luminance" maskUnits="userSpaceOnUse" x="0" y="0" width="47" height="44">
<path d="M2 2H44.1053V10.4211L42.6337 11.3053C41.4885 11.9924 40.1781 12.3553 38.8426 12.3553C37.5071 12.3553 36.1968 11.9924 35.0516 11.3053L33.5789 10.4211L32.1074 11.3053C30.9622 11.9924 29.6518 12.3553 28.3163 12.3553C26.9808 12.3553 25.6704 11.9924 24.5253 11.3053L23.0526 10.4211L21.5811 11.3053C20.4358 11.9926 19.1252 12.3556 17.7895 12.3556C16.4538 12.3556 15.1432 11.9926 13.9979 11.3053L12.5263 10.4211L11.0537 11.3053C9.90863 11.9922 8.59844 12.355 7.26316 12.355C5.92787 12.355 4.61768 11.9922 3.47263 11.3053L2 10.4211V2Z" fill="white" stroke="white" stroke-width="3.8" stroke-linecap="round" stroke-linejoin="round"/>
<path d="M7.26324 13.5791V23.0528M38.8422 13.5791V23.0528M4.10535 23.0528H42.0001V42.0002H4.10535V23.0528Z" stroke="white" stroke-width="3.8" stroke-linecap="round" stroke-linejoin="round"/>
</mask>
<g mask="url(#mask0_1191_2232)">
<path d="M-2.21057 -3.2627H48.3157V47.2636H-2.21057V-3.2627Z" fill="white"/>
</g>
</svg>
