<svg width="44" height="44" viewBox="0 0 44 44" fill="none" xmlns="http://www.w3.org/2000/svg">
<path d="M32.5882 23.1765H2V32.5882C2 35.0844 2.99159 37.4783 4.75664 39.2434C6.52169 41.0084 8.91561 42 11.4118 42H23.1765C25.6726 42 28.0665 41.0084 29.8316 39.2434C31.5966 37.4783 32.5882 35.0844 32.5882 32.5882V23.1765ZM32.5882 23.1765H37.2941C38.5422 23.1765 39.7392 23.6723 40.6217 24.5548C41.5042 25.4373 42 26.6343 42 27.8824V30.2353C42 31.4834 41.5042 32.6803 40.6217 33.5629C39.7392 34.4454 38.5422 34.9412 37.2941 34.9412H32.5882M23.1765 16.1176C23.1765 16.1176 25.5294 13.7647 24.3529 11.4118L22 6.70588C20.8235 4.35294 23.1765 2 23.1765 2M12.9176 16.1176C12.9176 16.1176 15.2706 13.7647 14.0941 11.4118L11.7412 6.70588C10.5647 4.35294 12.9176 2 12.9176 2" stroke="white" stroke-width="3.17647" stroke-linecap="round" stroke-linejoin="round"/>
</svg>
