<svg width="77" height="77" viewBox="0 0 77 77" fill="none" xmlns="http://www.w3.org/2000/svg">
<mask id="mask0_815_1341" style="mask-type:alpha" maskUnits="userSpaceOnUse" x="0" y="0" width="77" height="77">
<rect x="0.832031" width="76.1681" height="76.1681" fill="#D9D9D9"/>
</mask>
<g mask="url(#mask0_815_1341)">
<path d="M33.0182 30.4647V27.5625C31.9413 27.4201 30.8565 27.3463 29.7703 27.3418C16.4858 27.3418 5.67578 37.4585 5.67578 49.8934C5.67578 57.52 9.7498 64.2736 15.9624 68.3554C11.8024 64.1915 9.48809 58.7035 9.492 53.0026C9.492 40.7454 19.9934 30.7498 33.0182 30.4647Z" fill="#00F2EA"/>
<path d="M33.6578 62.4969C39.2747 62.4969 43.8545 58.0577 44.0635 52.5228L44.0831 3.1268H53.1646C52.9702 2.09584 52.8715 1.04912 52.8697 0L40.468 0L40.4465 49.3979C40.2395 54.9289 35.6557 59.3682 30.0408 59.3682C28.3562 59.3682 26.6968 58.9594 25.2051 58.1768C26.1717 59.5143 27.442 60.6033 28.9114 61.3543C30.3809 62.1053 32.0075 62.4969 33.6578 62.4969ZM70.1247 19.8935V17.1476C66.7908 17.1513 63.5274 16.1872 60.7307 14.3723C63.1853 17.1778 66.4793 19.1145 70.1247 19.8935Z" fill="#00F2EA"/>
<path d="M60.3613 15.0737C57.6341 11.9928 56.1281 8.02076 56.1271 3.90625H52.8128C53.2465 6.18278 54.1395 8.34708 55.4373 10.2671C56.7351 12.1871 58.4105 13.8226 60.3613 15.0737ZM29.7475 39.1877C24.0056 39.1955 19.3535 43.7988 19.3477 49.4802C19.3536 51.3635 19.8766 53.2091 20.8595 54.8157C21.8424 56.4223 23.2475 57.7282 24.9216 58.591C23.6441 56.8506 22.9546 54.7483 22.9529 52.5894C22.9588 46.9061 27.6109 42.3008 33.3528 42.295C34.427 42.295 35.4523 42.4707 36.423 42.7715V30.2721C35.4058 30.1291 34.38 30.0547 33.3528 30.0495C33.1731 30.0495 32.9954 30.0612 32.8177 30.0632V39.6642C31.8242 39.3514 30.7891 39.1908 29.7475 39.1877Z" fill="#FF004F"/>
<path d="M68.472 21.4834V31.022C62.3026 31.0312 56.2846 29.1117 51.2599 25.532V50.4663C51.2599 62.9208 41.0456 73.0531 28.4915 73.0531C23.6383 73.0531 19.1385 71.5337 15.4414 68.9576C17.5757 71.2361 20.1554 73.0519 23.0204 74.2922C25.8855 75.5326 28.9748 76.1711 32.0968 76.1682C44.6528 76.1682 54.8672 66.0359 54.8672 53.5834V28.6471C59.8921 32.2261 65.91 34.1449 72.0792 34.1351V21.8642C70.8668 21.8639 69.6578 21.7362 68.472 21.4834Z" fill="#FF004F"/>
<path d="M52.5076 49.6462V24.6708C57.6785 28.2653 63.8285 30.1851 70.1259 30.1706V20.6203C66.4229 19.8539 63.0616 17.9242 60.5326 15.1127C56.486 12.5601 53.6931 8.51149 52.8065 3.90625H43.5354L43.5159 53.1519C43.3011 58.6672 38.6236 63.0928 32.8914 63.0928C29.4658 63.0889 26.255 61.4874 24.259 58.7883C20.7553 57.0052 18.5581 53.4839 18.5562 49.6442C18.5621 43.9414 23.3216 39.3225 29.2002 39.3147C30.2939 39.3147 31.3446 39.4904 32.3407 39.7931V30.1589C19.7417 30.446 9.58203 40.4708 9.58203 52.7632C9.58203 58.7102 11.9628 64.122 15.8415 68.1628C19.7801 70.843 24.4361 72.2718 29.2002 72.2622C42.0511 72.2622 52.5076 62.1163 52.5076 49.6462Z" fill="white"/>
</g>
</svg>
