<svg width="53" height="53" viewBox="0 0 53 53" fill="none" xmlns="http://www.w3.org/2000/svg">
<mask id="mask0_1314_198" style="mask-type:alpha" maskUnits="userSpaceOnUse" x="0" y="0" width="53" height="53">
<rect width="53" height="53" fill="#D9D9D9"/>
</mask>
<g mask="url(#mask0_1314_198)">
<path d="M41 25C41 23.082 39.64 21.478 37.838 21.092C38.558 19.89 39 18.5 39 17C39 12.588 35.412 9 31 9C27.966 9 25.358 10.714 24 13.208C22.642 10.714 20.034 9 17 9C12.588 9 9 12.588 9 17C9 18.804 9.624 20.454 10.634 21.792C10.1292 22.1611 9.71825 22.6439 9.4344 23.2011C9.15055 23.7584 9.00175 24.3746 9 25V41C9 43.206 10.794 45 13 45H37C39.206 45 41 43.206 41 41V35.724L49 39.724V25.724L41 29.724V25ZM31 13C33.206 13 35 14.794 35 17C35 19.206 33.206 21 31 21C28.794 21 27 19.206 27 17C27 14.794 28.794 13 31 13ZM17 13C19.206 13 21 14.794 21 17C21 19.206 19.206 21 17 21C14.794 21 13 19.206 13 17C13 14.794 14.794 13 17 13ZM13 41V25H37L37.004 41H13Z" fill="white"/>
</g>
</svg>
