<svg width="77" height="77" viewBox="0 0 77 77" fill="none" xmlns="http://www.w3.org/2000/svg">
<mask id="mask0_815_1349" style="mask-type:alpha" maskUnits="userSpaceOnUse" x="0" y="0" width="77" height="77">
<rect width="76.1681" height="76.1681" fill="#D9D9D9"/>
</mask>
<g mask="url(#mask0_815_1349)">
<path d="M22.3114 0.266353C18.2593 0.457537 15.492 1.10421 13.0729 2.0548C10.5692 3.03052 8.44718 4.33986 6.33578 6.45888C4.22438 8.5779 2.92418 10.7015 1.95532 13.209C1.01768 15.6334 0.382429 18.4029 0.203433 22.4574C0.0244358 26.5118 -0.015172 27.8151 0.00463188 38.1573C0.0244358 48.4995 0.0701371 49.7959 0.266653 53.8587C0.460121 57.9102 1.10451 60.6766 2.0551 63.0965C3.03234 65.6002 4.34016 67.7215 6.45994 69.8336C8.57972 71.9458 10.7018 73.2429 13.2154 74.2133C15.6375 75.1494 18.4078 75.7877 22.4615 75.9652C26.5152 76.1427 27.82 76.1838 38.1591 76.164C48.4983 76.1442 49.8 76.0985 53.8621 75.9058C57.9242 75.7131 60.6761 75.0641 63.0968 74.1181C65.6005 73.1386 67.7233 71.8331 69.8339 69.7125C71.9446 67.592 73.244 65.4669 74.2121 62.9579C75.1505 60.5357 75.788 57.7654 75.964 53.7148C76.1415 49.6496 76.1834 48.3517 76.1636 38.0111C76.1438 27.6704 76.0973 26.374 75.9046 22.3127C75.7119 18.2513 75.0667 15.4933 74.1169 13.0719C73.1381 10.5682 71.8318 8.44841 69.7128 6.33472C67.5938 4.22104 65.4672 2.92236 62.9589 1.95654C60.5352 1.0189 57.7665 0.379845 53.7128 0.204657C49.6591 0.0294682 48.3543 -0.0154714 38.0114 0.00433253C27.6684 0.0241364 26.3735 0.0683143 22.3114 0.266353ZM22.7563 69.1138C19.043 68.9523 17.0268 68.3354 15.6832 67.819C13.9039 67.1334 12.6365 66.3047 11.2974 64.9786C9.95837 63.6525 9.13575 62.3805 8.44109 60.605C7.91933 59.2614 7.29094 57.2475 7.11728 53.5343C6.92838 49.5209 6.88877 48.3159 6.86668 38.1482C6.84459 27.9804 6.88344 26.7769 7.05939 22.7621C7.21782 19.0519 7.8386 17.0334 8.35426 15.6905C9.03978 13.909 9.86545 12.6438 11.1946 11.3055C12.5237 9.96721 13.792 9.14307 15.569 8.44841C16.9111 7.92437 18.925 7.30131 22.6367 7.12459C26.6531 6.93417 27.8565 6.89609 38.0228 6.874C48.189 6.85191 49.3955 6.88999 53.4135 7.06671C57.1236 7.22818 59.1429 7.84287 60.4842 8.36158C62.2643 9.04709 63.531 9.87048 64.8692 11.2019C66.2075 12.5333 67.0324 13.797 67.7271 15.5778C68.2519 16.9161 68.875 18.9292 69.0501 22.6432C69.2413 26.6596 69.2848 27.8638 69.303 38.0293C69.3213 48.1948 69.2855 49.4021 69.1096 53.4154C68.9473 57.1287 68.3319 59.1456 67.8147 60.4908C67.1292 62.2693 66.3027 63.5375 64.9728 64.875C63.6429 66.2126 62.3762 67.0367 60.5985 67.7314C59.2579 68.2546 57.2417 68.8792 53.533 69.0559C49.5167 69.2448 48.3132 69.2844 38.1431 69.3065C27.9731 69.3286 26.7734 69.2875 22.757 69.1138M53.8034 17.7296C53.8049 18.6335 54.0745 19.5167 54.578 20.2675C55.0815 21.0182 55.7963 21.6028 56.632 21.9473C57.4678 22.2917 58.3869 22.3806 59.2732 22.2027C60.1594 22.0247 60.973 21.588 61.611 20.9476C62.2491 20.3072 62.6828 19.492 62.8575 18.6051C63.0322 17.7182 62.94 16.7994 62.5924 15.965C62.2449 15.1305 61.6577 14.4178 60.9051 13.9171C60.1526 13.4163 59.2684 13.15 58.3644 13.1518C57.1526 13.1543 55.9914 13.6379 55.1361 14.4963C54.2808 15.3548 53.8014 16.5178 53.8034 17.7296ZM18.5297 38.1223C18.551 48.923 27.3226 57.6588 38.121 57.6382C48.9195 57.6177 57.6614 48.8468 57.6408 38.0461C57.6203 27.2453 48.8464 18.5073 38.0464 18.5286C27.2464 18.5499 18.5091 27.323 18.5297 38.1223ZM25.3894 38.1085C25.3845 35.5977 26.1241 33.1418 27.515 31.0513C28.9058 28.9609 30.8853 27.3298 33.2031 26.3644C35.5209 25.3989 38.0729 25.1425 40.5365 25.6274C43 26.1124 45.2645 27.317 47.0434 29.0889C48.8224 30.8608 50.0359 33.1205 50.5306 35.5821C51.0254 38.0437 50.779 40.5968 49.8228 42.9184C48.8665 45.24 47.2433 47.2259 45.1583 48.625C43.0734 50.0241 40.6204 50.7735 38.1096 50.7785C36.4424 50.782 34.7909 50.457 33.2493 49.8221C31.7077 49.1873 30.3063 48.255 29.125 47.0784C27.9438 45.9019 27.0059 44.5041 26.365 42.9651C25.724 41.426 25.3925 39.7757 25.3894 38.1085Z" fill="white"/>
</g>
</svg>
